<svg width="21" height="22" viewBox="0 0 21 22" fill="none" xmlns="http://www.w3.org/2000/svg">
<path fill-rule="evenodd" clip-rule="evenodd" d="M14.5356 5.80847H10.9017V0.617188H14.5356V5.80847ZM14.5356 16.191H10.9017V21.3823H14.5356V16.191ZM15.5739 21.3823H20.7651V16.191V15.1528H15.5739V16.191V21.3823ZM15.5739 14.1145H20.7651V7.88498H15.5739V14.1145ZM15.5739 6.84673H20.7651V5.80847V0.617188H15.5739V5.80847V6.84673ZM9.86344 0.617188V5.80847H6.22954V0.617188H9.86344ZM6.22954 16.191H9.86344V21.3823H6.22954V16.191ZM5.19128 21.3823V16.191V15.1528H0V16.191V21.3823H5.19128ZM0 14.1145H5.19128V7.88498H0V14.1145ZM5.19128 5.80847V6.84673H0V5.80847V0.617188H5.19128V5.80847Z" fill="#C6F57A"/>
</svg>
