<svg width="32" height="32" viewBox="0 0 32 32" fill="none" xmlns="http://www.w3.org/2000/svg">
<g filter="url(#filter0_bi_50_2407)">
<rect width="32" height="32" rx="16" fill="white" fill-opacity="0.02"/>
<rect x="0.5" y="0.5" width="31" height="31" rx="15.5" stroke="white" stroke-opacity="0.08"/>
<g clip-path="url(#clip0_50_2407)">
<path d="M22.0883 13.4749C22.0584 12.8228 21.9551 12.3777 21.8036 11.9881C21.6473 11.5855 21.4378 11.2437 21.0972 10.9032C20.7567 10.5626 20.4153 10.3532 20.0123 10.1968C19.6227 10.0453 19.1772 9.94197 18.5255 9.91216C17.8722 9.88194 17.6635 9.875 16 9.875C14.3365 9.875 14.1278 9.88194 13.4749 9.91175C12.8228 9.94156 12.3777 10.0449 11.9881 10.1964C11.5855 10.3528 11.2437 10.5622 10.9032 10.9028C10.5626 11.2433 10.3532 11.5847 10.1968 11.9877C10.0453 12.3773 9.94197 12.8228 9.91216 13.4745C9.88194 14.1278 9.875 14.3365 9.875 16C9.875 17.6635 9.88194 17.8722 9.91175 18.5251C9.94156 19.1772 10.0449 19.6223 10.1964 20.0119C10.3528 20.4145 10.5622 20.7563 10.9028 21.0968C11.2433 21.4374 11.5847 21.6468 11.9877 21.8032C12.3773 21.9547 12.8228 22.058 13.4745 22.0878C14.1278 22.1181 14.3365 22.125 16 22.125C17.6635 22.125 17.8722 22.1181 18.5251 22.0883C19.1772 22.0584 19.6223 21.9551 20.0119 21.8036C20.4145 21.6473 20.7563 21.4378 21.0968 21.0972C21.4374 20.7567 21.6468 20.4153 21.8032 20.0123C21.9547 19.6227 22.058 19.1772 22.0878 18.5255C22.1181 17.8722 22.125 17.6635 22.125 16C22.125 14.3365 22.1181 14.1278 22.0883 13.4749ZM20.9857 18.4749C20.9584 19.0719 20.8588 19.3965 20.7751 19.6121C20.664 19.898 20.5313 20.1021 20.3169 20.3165C20.1025 20.5309 19.8984 20.6636 19.6125 20.7746C19.3965 20.8583 19.0723 20.9584 18.4753 20.9853C17.8297 21.0147 17.6358 21.0209 16.0004 21.0209C14.365 21.0209 14.1711 21.0147 13.5255 20.9853C12.9285 20.958 12.6039 20.8583 12.3883 20.7746C12.1025 20.6636 11.8983 20.5309 11.6839 20.3165C11.4695 20.1021 11.3368 19.898 11.2258 19.6121C11.1421 19.3961 11.042 19.0719 11.0151 18.4749C10.9857 17.8289 10.9795 17.6354 10.9795 16C10.9795 14.3646 10.9857 14.1707 11.0151 13.5251C11.0424 12.9281 11.1421 12.6035 11.2258 12.3879C11.3368 12.102 11.4695 11.8979 11.6839 11.6835C11.8983 11.4691 12.1025 11.3364 12.3883 11.2254C12.6043 11.1416 12.9285 11.0416 13.5255 11.0147C14.1715 10.9853 14.365 10.9791 16.0004 10.9791C17.6358 10.9791 17.8297 10.9853 18.4753 11.0147C19.0723 11.042 19.3969 11.1416 19.6125 11.2254C19.8984 11.3364 20.1025 11.4691 20.3169 11.6835C20.5313 11.8979 20.664 12.102 20.7751 12.3879C20.8588 12.6039 20.9588 12.9281 20.9857 13.5251C21.0151 14.1711 21.0213 14.3646 21.0213 16C21.0213 17.6354 21.0151 17.8293 20.9857 18.4749ZM16 12.8546C14.2629 12.8546 12.8546 14.2629 12.8546 16C12.8546 17.7371 14.2629 19.1454 16 19.1454C17.7371 19.1454 19.1454 17.7371 19.1454 16C19.1454 14.2629 17.7371 12.8546 16 12.8546ZM16 18.0417C14.8726 18.0417 13.9583 17.1274 13.9583 16C13.9583 14.8726 14.8726 13.9583 16 13.9583C17.1274 13.9583 18.0417 14.8726 18.0417 16C18.0417 17.1274 17.1274 18.0417 16 18.0417ZM19.2695 11.9955C18.8636 11.9955 18.5345 12.3246 18.5345 12.7305C18.5345 13.1364 18.8636 13.4655 19.2695 13.4655C19.6754 13.4655 20.0045 13.1364 20.0045 12.7305C20.0045 12.3246 19.6754 11.9955 19.2695 11.9955Z" fill="white" fill-opacity="0.4"/>
</g>
</g>
<defs>
<filter id="filter0_bi_50_2407" x="-48" y="-48" width="128" height="128" filterUnits="userSpaceOnUse" color-interpolation-filters="sRGB">
<feFlood flood-opacity="0" result="BackgroundImageFix"/>
<feGaussianBlur in="BackgroundImageFix" stdDeviation="24"/>
<feComposite in2="SourceAlpha" operator="in" result="effect1_backgroundBlur_50_2407"/>
<feBlend mode="normal" in="SourceGraphic" in2="effect1_backgroundBlur_50_2407" result="shape"/>
<feColorMatrix in="SourceAlpha" type="matrix" values="0 0 0 0 0 0 0 0 0 0 0 0 0 0 0 0 0 0 127 0" result="hardAlpha"/>
<feOffset/>
<feGaussianBlur stdDeviation="6"/>
<feComposite in2="hardAlpha" operator="arithmetic" k2="-1" k3="1"/>
<feColorMatrix type="matrix" values="0 0 0 0 1 0 0 0 0 1 0 0 0 0 1 0 0 0 0.08 0"/>
<feBlend mode="normal" in2="shape" result="effect2_innerShadow_50_2407"/>
</filter>
<clipPath id="clip0_50_2407">
<rect width="14" height="14" fill="white" transform="translate(9 9)"/>
</clipPath>
</defs>
</svg>
